HIERARCHY
ROOT Hips
{
	OFFSET -32.860001 56.121803 44.745396
	CHANNELS 6 Xposition Yposition Zposition Zrotation Xrotation Yrotation
	JOINT Chest
	{
		OFFSET -0.637402 0.831600 5.390099
		CHANNELS 6 Xposition Yposition Zposition Zrotation Xrotation Yrotation
		JOINT Chest2
		{
			OFFSET 0.000000 0.000000 4.429901
			CHANNELS 6 Xposition Yposition Zposition Zrotation Xrotation Yrotation
			JOINT Neck
			{
				OFFSET 0.000000 0.000000 10.301395
				CHANNELS 6 Xposition Yposition Zposition Zrotation Xrotation Yrotation
				JOINT Head
				{
					OFFSET 0.000000 0.000000 2.173897
					CHANNELS 6 Xposition Yposition Zposition Zrotation Xrotation Yrotation
					End Site
					{
						OFFSET 0.000000 0.000000 8.298004
					}
				}
			}
			JOINT LeftCollar
			{
				OFFSET 2.142401 -0.572701 5.717800
				CHANNELS 6 Xposition Yposition Zposition Zrotation Xrotation Yrotation
				JOINT LeftShoulder
				{
					OFFSET 5.674000 0.000000 0.000000
					CHANNELS 6 Xposition Yposition Zposition Zrotation Xrotation Yrotation
					JOINT LeftElbow
					{
						OFFSET 0.000000 0.000000 -12.238701
						CHANNELS 6 Xposition Yposition Zposition Zrotation Xrotation Yrotation
						JOINT LeftWrist
						{
							OFFSET 0.000000 0.000000 -10.253700
							CHANNELS 6 Xposition Yposition Zposition Zrotation Xrotation Yrotation
							End Site
							{
								OFFSET 0.000000 0.000000 -2.173901
							}
						}
					}
				}
			}
			JOINT RightCollar
			{
				OFFSET -2.882599 -1.580101 6.695801
				CHANNELS 6 Xposition Yposition Zposition Zrotation Xrotation Yrotation
				JOINT RightShoulder
				{
					OFFSET -4.235600 0.000000 0.000000
					CHANNELS 6 Xposition Yposition Zposition Zrotation Xrotation Yrotation
					JOINT RightElbow
					{
						OFFSET 0.000000 0.000000 -10.709900
						CHANNELS 6 Xposition Yposition Zposition Zrotation Xrotation Yrotation
						JOINT RightWrist
						{
							OFFSET 0.000000 0.000000 -11.716801
							CHANNELS 6 Xposition Yposition Zposition Zrotation Xrotation Yrotation
							End Site
							{
								OFFSET 0.000000 0.000000 -2.173901
							}
						}
					}
				}
			}
		}
	}
	JOINT LeftHip
	{
		OFFSET 2.279499 0.210400 -2.475502
		CHANNELS 6 Xposition Yposition Zposition Zrotation Xrotation Yrotation
		JOINT LeftKnee
		{
			OFFSET 0.000000 -0.000004 -20.742800
			CHANNELS 6 Xposition Yposition Zposition Zrotation Xrotation Yrotation
			JOINT LeftAnkle
			{
				OFFSET 0.000000 0.000000 -16.666000
				CHANNELS 6 Xposition Yposition Zposition Zrotation Xrotation Yrotation
				End Site
				{
					OFFSET 0.000000 -8.310898 0.000000
				}
			}
		}
	}
	JOINT RightHip
	{
		OFFSET -1.961899 0.232300 -2.727402
		CHANNELS 6 Xposition Yposition Zposition Zrotation Xrotation Yrotation
		JOINT RightKnee
		{
			OFFSET 0.000000 -0.000004 -20.526800
			CHANNELS 6 Xposition Yposition Zposition Zrotation Xrotation Yrotation
			JOINT RightAnkle
			{
				OFFSET 0.000000 0.000000 -16.867300
				CHANNELS 6 Xposition Yposition Zposition Zrotation Xrotation Yrotation
				End Site
				{
					OFFSET 0.000000 -7.186401 0.000000
				}
			}
		}
	}
}
MOTION
Frames: 7
Frame Time: 0.041667
-43.120796 27.533506 44.100090 813.338599 4.117659 7.352997 -0.637408 0.831593 5.390094 -6.134278 3.840040 1.549837 0.000003 -0.000002 4.429902 2.392680 -1.988697 -0.204698 -0.000006 -0.000008 10.301395 402.774124 11.132432 -13.709464 -0.000000 -0.000003 2.173901 -358.723776 4.045350 2.471870 2.142396 -0.572701 5.717804 9.378209 -12.721291 -2.208372 5.674005 0.000003 0.000001 347.667093 -346.745809 -91.543741 0.000010 0.000006 -12.238712 -890.001079 -43.086667 -170.585313 0.000008 0.000006 -10.253703 496.484812 26.671465 -89.903697 -2.882610 -1.580100 6.695794 -5.721905 -7.977190 32.890250 -4.235606 -0.000005 -0.000004 -751.945143 -79.893768 -299.861998 0.000010 0.000006 -10.709902 115.618601 -161.355815 153.001770 -0.000002 0.000003 -11.716804 -719.107997 8.724276 373.398218 2.279497 0.210395 -2.475502 373.241862 -11.329790 1.812757 0.000006 -0.000004 -20.742798 -380.962106 25.956280 11.608344 0.000000 0.000006 -16.666000 367.854045 15.581367 16.068802 -1.961894 0.232297 -2.727407 -1112.449303 -24.451430 -16.841684 0.000001 -0.000006 -20.526804 916.314847 117.882385 -205.091688 -0.000001 -0.000005 -16.867296 18.804822 74.701922 -46.422655
-43.221603 27.345409 44.151791 811.778693 3.937522 7.493398 -0.637404 0.831601 5.390099 -5.797910 3.833537 1.724938 -0.000001 0.000003 4.429900 2.253105 -2.023614 -0.204243 0.000006 -0.000011 10.301400 403.436216 11.020904 -14.099564 -0.000005 0.000006 2.173910 -358.740004 4.072504 2.565117 2.142398 -0.572699 5.717812 9.724447 -12.877318 -2.195361 5.673996 -0.000001 0.000009 347.737908 -346.197673 -91.713676 -0.000001 0.000002 -12.238699 -889.640991 -43.362702 -170.197495 0.000001 0.000001 -10.253704 497.271759 26.591765 -89.958420 -2.882597 -1.580099 6.695807 -5.705215 -8.250609 33.414583 -4.235605 -0.000000 -0.000004 -746.453452 -80.141321 -294.416561 0.000010 0.000004 -10.709904 114.868154 -161.062103 152.469971 -0.000003 0.000002 -11.716805 -719.193293 8.667804 374.033016 2.279500 0.210402 -2.475500 373.700605 -11.593665 1.555753 0.000004 -0.000012 -20.742802 -380.408287 25.991774 11.387771 -0.000002 -0.000005 -16.666002 368.060972 16.033157 15.846228 -1.961897 0.232302 -2.727399 -1111.451111 -24.074113 -16.374035 0.000001 -0.000003 -20.526802 915.560248 118.354420 -205.222473 0.000000 0.000002 -16.867296 18.596850 74.404256 -47.236782
-43.323803 27.169405 44.192394 810.424129 3.780676 7.574344 -0.637404 0.831597 5.390094 -5.618118 3.811881 1.945322 -0.000002 -0.000000 4.429905 2.182600 -2.052194 -0.204430 -0.000004 -0.000006 10.301396 404.027245 10.882388 -14.488797 -0.000005 0.000009 2.173906 -358.743255 4.096552 2.635290 2.142398 -0.572697 5.717807 9.965465 -13.010557 -2.242815 5.674003 0.000001 0.000000 347.806784 -345.823898 -91.922516 0.000003 0.000005 -12.238700 -889.508650 -43.634500 -169.930940 -0.000002 -0.000001 -10.253708 497.303833 26.484800 -90.045150 -2.882603 -1.580099 6.695802 -5.681684 -8.394342 33.822506 -4.235615 0.000003 -0.000006 -741.255077 -80.195915 -289.116826 0.000008 0.000002 -10.709902 114.191515 -160.810739 152.094133 0.000002 0.000000 -11.716797 -719.524311 8.639990 374.686010 2.279497 0.210403 -2.475494 374.070828 -11.807264 1.335853 -0.000002 -0.000005 -20.742796 -380.049320 25.955808 11.278573 0.000000 -0.000006 -16.666002 368.539331 16.423922 15.628736 -1.961900 0.232306 -2.727405 -1110.511933 -23.762351 -15.993318 0.000004 -0.000006 -20.526804 915.063775 118.810717 -205.447172 -0.000005 0.000003 -16.867308 18.458690 74.173074 -47.782221
-43.427505 27.005306 44.222294 809.258134 3.649531 7.615662 -0.637406 0.831596 5.390098 -5.553860 3.775095 2.183864 -0.000002 -0.000003 4.429903 2.143490 -2.049787 -0.225416 0.000000 -0.000010 10.301397 404.527133 10.737114 -14.835292 0.000007 -0.000003 2.173904 -358.710525 4.123439 2.685081 2.142394 -0.572698 5.717805 10.133129 -13.146465 -2.329492 5.673998 0.000001 -0.000004 347.856125 -345.603119 -92.118980 0.000003 0.000007 -12.238700 -889.554166 -43.895659 -169.743110 0.000000 0.000009 -10.253687 497.502510 26.595071 -89.962976 -2.882609 -1.580096 6.695799 -5.616000 -8.458141 34.188850 -4.235602 0.000004 -0.000008 -736.804143 -80.075881 -284.410225 0.000003 0.000011 -10.709894 113.565002 -160.611051 151.826636 -0.000003 0.000007 -11.716804 -719.996632 8.698782 375.423424 2.279495 0.210400 -2.475499 374.370783 -11.986605 1.144871 0.000004 -0.000006 -20.742792 -379.895231 25.874075 11.256918 -0.000006 -0.000003 -16.666002 369.196122 16.805336 15.503297 -1.961901 0.232294 -2.727402 -1109.646302 -23.508348 -15.705745 0.000004 -0.000001 -20.526802 914.795868 119.257890 -205.740311 0.000001 -0.000001 -16.867302 18.633869 74.127503 -48.325347
-43.533691 26.853308 44.242992 808.270762 3.549314 7.616520 -0.637400 0.831592 5.390100 -5.591273 3.713099 2.427986 0.000000 0.000002 4.429890 2.140622 -2.057309 -0.226236 -0.000000 -0.000011 10.301389 404.903941 10.630815 -15.162105 0.000003 -0.000002 2.173900 -358.599739 4.126949 2.682045 2.142401 -0.572701 5.717798 10.194012 -13.219244 -2.462585 5.674000 -0.000002 -0.000003 347.901177 -345.495393 -92.299379 0.000005 0.000001 -12.238703 -889.686125 -44.137400 -169.572342 0.000006 0.000002 -10.253699 497.385850 26.837606 -89.762804 -2.882605 -1.580092 6.695786 -7.882994 -6.871340 33.915137 -4.235612 0.000003 -0.000002 -734.275225 -82.335465 -282.585854 0.000003 0.000000 -10.709894 112.909857 -160.457372 151.627153 0.000001 0.000008 -11.716804 -720.839095 8.652426 376.208322 2.279499 0.210399 -2.475499 374.605769 -12.148338 0.987389 0.000001 -0.000007 -20.742802 -379.970527 25.760089 11.334696 -0.000006 -0.000002 -16.666000 370.027028 17.037885 15.447605 -1.961896 0.232300 -2.727410 -1108.873453 -23.312981 -15.498114 0.000003 -0.000002 -20.526802 914.716692 119.700759 -206.078063 -0.000004 -0.000001 -16.867298 18.399676 73.977144 -48.377923
-43.642097 26.713408 44.255791 807.442397 3.471233 7.578372 -0.637405 0.831600 5.390098 -5.688416 3.645336 2.689326 0.000004 0.000005 4.429901 2.142900 -2.057840 -0.226734 0.000004 0.000000 10.301395 405.241189 10.513515 -15.503496 0.000002 0.000005 2.173897 -358.573867 4.109487 2.558268 2.142394 -0.572693 5.717799 10.202653 -13.270833 -2.630427 5.673994 0.000006 0.000000 347.899538 -345.500256 -92.444397 -0.000006 0.000009 -12.238708 -889.910155 -44.375807 -169.480243 -0.000000 -0.000003 -10.253698 497.213347 27.069624 -89.593716 -2.882607 -1.580096 6.695795 -7.557761 -6.888253 34.160184 -4.235607 0.000000 -0.000003 -730.023732 -81.701746 -277.709044 0.000005 0.000000 -10.709890 112.286923 -160.342980 151.485523 0.000000 0.000012 -11.716803 -721.744177 8.671764 377.062205 2.279499 0.210401 -2.475494 374.795894 -12.298282 0.868960 -0.000002 -0.000006 -20.742794 -380.155707 25.641169 11.461763 -0.000001 0.000009 -16.666000 370.903178 17.203215 15.457553 -1.961896 0.232296 -2.727405 -1108.170435 -23.170408 -15.349344 0.000007 -0.000001 -20.526793 914.820839 120.146238 -206.479269 -0.000000 -0.000000 -16.867300 18.104139 73.861652 -48.303887
-43.752003 26.585009 44.262688 806.747958 3.401537 7.513175 -0.637407 0.831605 5.390094 -5.834215 3.589624 2.955728 -0.000003 -0.000001 4.429899 2.151294 -2.055198 -0.227135 0.000004 -0.000008 10.301393 405.524997 10.398995 -15.826634 -0.000005 0.000003 2.173891 -358.458382 4.105846 2.574199 2.142395 -0.572697 5.717803 10.190156 -13.319543 -2.813421 5.673999 -0.000006 0.000004 347.842956 -345.572875 -92.541345 0.000001 0.000007 -12.238695 -890.178992 -44.605131 -169.429686 0.000000 -0.000002 -10.253710 497.362081 27.348805 -90.073434 -2.882603 -1.580098 6.695796 -7.280831 -6.871526 34.334784 -4.235613 -0.000001 -0.000010 -726.939602 -81.001884 -274.002819 -0.000004 -0.000006 -10.709894 111.710599 -160.255526 151.391867 0.000008 0.000012 -11.716813 -722.742805 8.690594 377.941005 2.279496 0.210408 -2.475495 374.961375 -12.437789 0.779757 0.000001 -0.000007 -20.742794 -380.406730 25.535606 11.619758 -0.000002 0.000002 -16.665998 371.772087 17.304807 15.510103 -1.961899 0.232300 -2.727400 -1107.540965 -23.061367 -15.252632 0.000000 -0.000002 -20.526802 915.073009 120.587645 -206.923422 0.000002 -0.000001 -16.867308 17.686720 73.758209 -48.123413
